<?xml version="1.0" encoding="UTF-8"?>
<!DOCTYPE svg PUBLIC "-//W3C//DTD SVG 1.1//EN" "http://www.w3.org/Graphics/SVG/1.1/DTD/svg11.dtd">
<svg xmlns="http://www.w3.org/2000/svg" version="1.1" width="800px" height="600px"
  style="shape-rendering:geometricPrecision; text-rendering:geometricPrecision; image-rendering:optimizeQuality; fill-rule:evenodd; clip-rule:evenodd"
  xmlns:xlink="http://www.w3.org/1999/xlink">
  <g>
    <path style="opacity:0.424" fill="#040807"
      d="M 684.5,76.5 C 679.208,75.1712 673.542,74.5045 667.5,74.5C 661.657,74.5005 655.99,74.8339 650.5,75.5C 475.765,76.6427 301.098,77.976 126.5,79.5C 125.262,79.19 125.262,78.69 126.5,78C 313.169,76.5124 499.836,75.179 686.5,74C 687.412,75.6255 686.745,76.4588 684.5,76.5 Z" />
  </g>
  <g>
    <path style="opacity:0.915" fill="#182e2b"
      d="M 650.5,75.5 C 655.99,74.8339 661.657,74.5005 667.5,74.5C 673.542,74.5045 679.208,75.1712 684.5,76.5C 684.167,76.5 683.833,76.5 683.5,76.5C 672.679,75.5054 661.679,75.1721 650.5,75.5 Z" />
  </g>
  <g>
    <path style="opacity:0.999" fill="#519c93"
      d="M 650.5,75.5 C 661.679,75.1721 672.679,75.5054 683.5,76.5C 620.852,126.81 558.186,177.143 495.5,227.5C 464.014,177.87 432.514,128.203 401,78.5C 400.701,153.501 400.701,228.501 401,303.5C 372.292,327.046 343.459,350.38 314.5,373.5C 313.833,373.833 313.167,374.167 312.5,374.5C 250.5,276.167 188.5,177.833 126.5,79.5C 301.098,77.976 475.765,76.6427 650.5,75.5 Z" />
  </g>
  <g>
    <path style="opacity:0.529" fill="#09100f"
      d="M 683.5,76.5 C 683.833,76.5 684.167,76.5 684.5,76.5C 622.022,127.469 559.355,178.303 496.5,229C 556.698,324.367 616.698,419.867 676.5,515.5C 494.513,518.983 312.513,521.483 130.5,523C 129.588,521.375 130.255,520.541 132.5,520.5C 135.598,521.821 139.098,522.488 143,522.5C 146.683,522.499 150.183,522.165 153.5,521.5C 327.171,519.48 500.837,517.147 674.5,514.5C 614.469,419.633 554.636,324.633 495,229.5C 464.333,254.167 433.667,278.833 403,303.5C 402.5,315.829 402.333,328.162 402.5,340.5C 402.167,340.5 401.833,340.5 401.5,340.5C 401.667,328.829 401.5,317.162 401,305.5C 372.292,329.046 343.459,352.38 314.5,375.5C 314.5,374.833 314.5,374.167 314.5,373.5C 343.459,350.38 372.292,327.046 401,303.5C 400.701,228.501 400.701,153.501 401,78.5C 432.514,128.203 464.014,177.87 495.5,227.5C 558.186,177.143 620.852,126.81 683.5,76.5 Z M 401.5,82.5 C 432.501,130.86 463.168,179.527 493.5,228.5C 463.833,252.5 434.167,276.5 404.5,300.5C 403.808,299.975 403.308,299.308 403,298.5C 402.514,226.499 402.014,154.499 401.5,82.5 Z" />
  </g>
  <g>
    <path style="opacity:1" fill="#519c93"
      d="M 153.5,521.5 C 146.825,521.666 140.158,521.5 133.5,521C 193.498,472.012 253.832,423.512 314.5,375.5C 343.867,421.856 373.201,468.189 402.5,514.5C 402.5,515.167 402.5,515.833 402.5,516.5C 402.56,517.043 402.893,517.376 403.5,517.5C 404.827,499.004 404.827,480.671 403.5,462.5C 403.5,448.167 403.5,433.833 403.5,419.5C 403.506,393.161 403.173,366.828 402.5,340.5C 402.333,328.162 402.5,315.829 403,303.5C 433.667,278.833 464.333,254.167 495,229.5C 554.636,324.633 614.469,419.633 674.5,514.5C 500.837,517.147 327.171,519.48 153.5,521.5 Z" />
  </g>
  <g>
    <path style="opacity:0.578" fill="#132523"
      d="M 401.5,340.5 C 401.833,340.5 402.167,340.5 402.5,340.5C 403.173,366.828 403.506,393.161 403.5,419.5C 402.833,416.5 402.167,413.5 401.5,410.5C 401.5,387.167 401.5,363.833 401.5,340.5 Z" />
  </g>
  <g>
    <path style="opacity:0.404" fill="#0a1211"
      d="M 401.5,410.5 C 402.167,413.5 402.833,416.5 403.5,419.5C 403.5,433.833 403.5,448.167 403.5,462.5C 403.83,480.674 403.497,498.674 402.5,516.5C 402.5,515.833 402.5,515.167 402.5,514.5C 402.523,479.829 402.19,445.162 401.5,410.5 Z" />
  </g>
  <g>
    <path style="opacity:0.929" fill="#101b19"
      d="M 314.5,373.5 C 314.5,374.167 314.5,374.833 314.5,375.5C 253.832,423.512 193.498,472.012 133.5,521C 140.158,521.5 146.825,521.666 153.5,521.5C 150.183,522.165 146.683,522.499 143,522.5C 139.098,522.488 135.598,521.821 132.5,520.5C 192.186,471.485 252.186,422.818 312.5,374.5C 313.167,374.167 313.833,373.833 314.5,373.5 Z" />
  </g>
  <g>
    <path style="opacity:1" fill="#35655f"
      d="M 403.5,462.5 C 404.827,480.671 404.827,499.004 403.5,517.5C 402.893,517.376 402.56,517.043 402.5,516.5C 403.497,498.674 403.83,480.674 403.5,462.5 Z" />
  </g>
</svg>
